<svg width="1920" height="1080" viewBox="0 0 1920 1080" fill="none" xmlns="http://www.w3.org/2000/svg">
<path fill-rule="evenodd" clip-rule="evenodd" d="M1507.37 889.358C1525.62 917.017 1517.99 954.234 1490.33 972.483L1333.45 1075.99C1331.32 1077.4 1329.13 1078.65 1326.9 1079.75L1140.92 1202.47L1140.59 1201.97L1140.58 1201.98L1037.63 1137.94L1037.71 1137.8L969.87 1036.74L969.581 1036.71L969.618 1036.36L969.435 1036.09L969.663 1035.94L991.177 831.918L991.666 831.969L991.45 831.656L1114.52 741.846L1114.61 741.98L1114.62 741.779L1271.91 701.166C1282.95 698.318 1294.62 699.322 1305 704.014L1408.39 750.732L1407.94 765.515C1421.43 769.248 1433.69 777.691 1442 790.293L1507.37 889.358Z" fill="#F8D37E"/>
<path fill-rule="evenodd" clip-rule="evenodd" d="M84.4632 776.247C52.9822 786.592 19.0757 769.457 8.73117 737.976L-49.9428 559.417C-50.739 556.994 -51.3724 554.556 -51.8491 552.116L-121.41 340.427L-120.845 340.241L-120.854 340.232L-32.0218 257.709L-31.9092 257.83L83.427 218.914L83.5324 218.642L83.8566 218.769L84.1678 218.664L84.256 218.924L275.461 293.267L275.282 293.725L275.641 293.599L329.976 435.933L329.821 435.99L330.014 436.049L327.888 598.489C327.739 609.882 323.704 620.882 316.45 629.668L244.217 717.159L230.071 712.842C222.926 724.879 211.561 734.483 197.218 739.196L84.4632 776.247Z" fill="#F8D37E"/>
<path fill-rule="evenodd" clip-rule="evenodd" d="M1383.63 -95.7293C1402.54 -122.941 1439.92 -129.67 1467.14 -110.759L1730.75 72.439C1733.82 74.5696 1736.62 76.9347 1739.16 79.4933L1979.79 246.722L1979.07 247.758L1979.09 247.758L1905.26 481.156L1905 481.154L1758.7 694.093L1758.74 694.599L1758.16 694.886L1757.76 695.461L1757.44 695.24L1412.27 864.885L1412.2 864.03L1411.75 864.699L1224.08 752.85L1224.27 752.558L1223.94 752.751L1102.83 527.317C1097.44 517.291 1096.08 503.801 1099.02 489.633L1146.39 261.365L1152.3 257.981C1151.87 245.501 1155.33 232.782 1163 221.739L1383.63 -95.7293Z" fill="#1F2433"/>
<path fill-rule="evenodd" clip-rule="evenodd" d="M1294.76 618.749C1316.05 644.142 1312.72 681.986 1287.33 703.275L888.444 1037.69C885.612 1040.06 882.626 1042.13 879.525 1043.9L570.31 1303.13L569.516 1302.19L569.505 1302.21L341.55 1194.34L341.697 1194.03L177.503 1001.32L176.898 1001.32L176.891 1000.6L176.448 1000.08L176.883 999.706L172.873 573.029L173.895 573.019L173.375 572.424L406.335 357.611L406.564 357.866L406.528 357.448L739.649 229.338C750.283 225.248 761.995 224.913 772.846 228.388L1015.69 306.16L1015.97 309.501C1029.9 311.619 1043.14 318.624 1052.9 330.268L1294.76 618.749Z" fill="#1F2433"/>
</svg>
